<svg width="80" height="80" viewBox="0 0 80 80" fill="none" xmlns="http://www.w3.org/2000/svg">
<path d="M65 17.5H56.3375L52.0781 11.1125C51.8499 10.7705 51.5409 10.49 51.1784 10.296C50.8159 10.1019 50.4112 10.0002 50 10H30C29.5888 10.0002 29.1841 10.1019 28.8216 10.296C28.4591 10.49 28.1501 10.7705 27.9219 11.1125L23.6594 17.5H15C13.0109 17.5 11.1032 18.2902 9.6967 19.6967C8.29018 21.1032 7.5 23.0109 7.5 25V60C7.5 61.9891 8.29018 63.8968 9.6967 65.3033C11.1032 66.7098 13.0109 67.5 15 67.5H65C66.9891 67.5 68.8968 66.7098 70.3033 65.3033C71.7098 63.8968 72.5 61.9891 72.5 60V25C72.5 23.0109 71.7098 21.1032 70.3033 19.6967C68.8968 18.2902 66.9891 17.5 65 17.5ZM67.5 60C67.5 60.663 67.2366 61.2989 66.7678 61.7678C66.2989 62.2366 65.663 62.5 65 62.5H15C14.337 62.5 13.7011 62.2366 13.2322 61.7678C12.7634 61.2989 12.5 60.663 12.5 60V25C12.5 24.337 12.7634 23.7011 13.2322 23.2322C13.7011 22.7634 14.337 22.5 15 22.5H25C25.4117 22.5003 25.8171 22.3989 26.1802 22.2048C26.5432 22.0107 26.8528 21.73 27.0813 21.3875L31.3375 15H48.6594L52.9187 21.3875C53.1472 21.73 53.4568 22.0107 53.8198 22.2048C54.1829 22.3989 54.5883 22.5003 55 22.5H65C65.663 22.5 66.2989 22.7634 66.7678 23.2322C67.2366 23.7011 67.5 24.337 67.5 25V60ZM40 27.5C37.2805 27.5 34.6221 28.3064 32.3609 29.8173C30.0997 31.3282 28.3374 33.4756 27.2967 35.9881C26.256 38.5006 25.9837 41.2653 26.5142 43.9325C27.0448 46.5997 28.3543 49.0497 30.2773 50.9727C32.2003 52.8957 34.6503 54.2053 37.3175 54.7358C39.9847 55.2663 42.7494 54.994 45.2619 53.9533C47.7744 52.9126 49.9218 51.1503 51.4327 48.8891C52.9436 46.6279 53.75 43.9695 53.75 41.25C53.7459 37.6045 52.2959 34.1096 49.7182 31.5318C47.1404 28.9541 43.6455 27.5041 40 27.5ZM40 50C38.2694 50 36.5777 49.4868 35.1388 48.5254C33.6998 47.5639 32.5783 46.1973 31.9161 44.5985C31.2538 42.9996 31.0805 41.2403 31.4181 39.543C31.7557 37.8456 32.5891 36.2865 33.8128 35.0628C35.0365 33.8391 36.5956 33.0057 38.293 32.6681C39.9903 32.3305 41.7496 32.5038 43.3485 33.1661C44.9473 33.8283 46.3139 34.9498 47.2754 36.3888C48.2368 37.8277 48.75 39.5194 48.75 41.25C48.75 43.5706 47.8281 45.7962 46.1872 47.4372C44.5462 49.0781 42.3206 50 40 50Z" fill="#CCCCCC"/>
</svg>
