<svg width="32" height="32" viewBox="0 0 32 32" fill="none" xmlns="http://www.w3.org/2000/svg">
<path fill-rule="evenodd" clip-rule="evenodd" d="M16 19.4666C16.9194 19.4666 17.8012 19.1013 18.4513 18.4512C19.1015 17.8011 19.4667 16.9193 19.4667 15.9999C19.4667 15.0805 19.1015 14.1987 18.4513 13.5486C17.8012 12.8985 16.9194 12.5332 16 12.5332C15.0806 12.5332 14.1988 12.8985 13.5487 13.5486C12.8986 14.1987 12.5334 15.0805 12.5334 15.9999C12.5334 16.9193 12.8986 17.8011 13.5487 18.4512C14.1988 19.1013 15.0806 19.4666 16 19.4666ZM16 21.5999C16.7354 21.5999 17.4636 21.4551 18.1431 21.1736C18.8225 20.8922 19.4398 20.4797 19.9598 19.9597C20.4798 19.4397 20.8923 18.8224 21.1737 18.1429C21.4552 17.4635 21.6 16.7353 21.6 15.9999C21.6 15.2645 21.4552 14.5363 21.1737 13.8569C20.8923 13.1775 20.4798 12.5601 19.9598 12.0401C19.4398 11.5201 18.8225 11.1076 18.1431 10.8262C17.4636 10.5448 16.7354 10.3999 16 10.3999C14.5148 10.3999 13.0904 10.9899 12.0402 12.0401C10.99 13.0903 10.4 14.5147 10.4 15.9999C10.4 17.4851 10.99 18.9095 12.0402 19.9597C13.0904 21.0099 14.5148 21.5999 16 21.5999Z" fill="black"/>
</svg>
