<svg width="20" height="20" viewBox="0 0 20 20" fill="none" xmlns="http://www.w3.org/2000/svg">
<path d="M6.43332 13.7133L7.90082 13.29L16.7367 4.34829C16.8064 4.27687 16.8452 4.1809 16.8447 4.08111C16.8442 3.98132 16.8045 3.88572 16.7342 3.81495L16.205 3.27995C16.1708 3.24482 16.1299 3.21684 16.0848 3.19767C16.0397 3.17849 15.9912 3.16849 15.9422 3.16826C15.8932 3.16803 15.8446 3.17756 15.7993 3.19631C15.754 3.21506 15.7128 3.24264 15.6783 3.27745L6.86582 12.1958L6.43332 13.7133ZM17.2525 2.21995L17.7817 2.75579C18.5117 3.49495 18.5183 4.68745 17.795 5.41912L8.68999 14.6341L5.55332 15.5375C5.4585 15.5641 5.35935 15.5718 5.26154 15.5602C5.16374 15.5485 5.06919 15.5177 4.98329 15.4695C4.89739 15.4213 4.82184 15.3566 4.76093 15.2792C4.70002 15.2018 4.65496 15.1131 4.62832 15.0183C4.58745 14.8808 4.58688 14.7344 4.62666 14.5966L5.53916 11.3966L14.62 2.20579C14.7927 2.03192 14.9982 1.89417 15.2247 1.80058C15.4512 1.70699 15.694 1.65943 15.939 1.66067C16.1841 1.66191 16.4264 1.71193 16.6519 1.80781C16.8774 1.90369 17.0816 2.04434 17.2525 2.21995ZM7.65332 3.18079C8.06666 3.18079 8.40166 3.51995 8.40166 3.93829C8.40232 4.03718 8.38348 4.13523 8.34621 4.22683C8.30895 4.31843 8.254 4.4018 8.1845 4.47215C8.115 4.5425 8.03231 4.59846 7.94117 4.63684C7.85003 4.67521 7.75221 4.69524 7.65332 4.69579H4.65999C3.83332 4.69579 3.16332 5.37412 3.16332 6.20995V15.2983C3.16332 16.135 3.83332 16.8133 4.65999 16.8133H13.64C14.4667 16.8133 15.1375 16.135 15.1375 15.2983V12.2691C15.1375 11.8508 15.4725 11.5116 15.8858 11.5116C16.2992 11.5116 16.6342 11.8508 16.6342 12.27V15.2983C16.6342 16.9716 15.2933 18.3283 13.64 18.3283H4.65999C3.00666 18.3283 1.66666 16.9716 1.66666 15.2983V6.20995C1.66666 4.53745 3.00666 3.18079 4.65999 3.18079H7.65332Z" fill="white"/>
</svg>
