<svg width="32" height="32" viewBox="0 0 32 32" fill="none" xmlns="http://www.w3.org/2000/svg">
<path d="M5.20002 16.0002C5.20002 13.7202 7.05335 11.8668 9.33335 11.8668H14.6667V9.3335H9.33335C5.65335 9.3335 2.66669 12.3202 2.66669 16.0002C2.66669 19.6802 5.65335 22.6668 9.33335 22.6668H14.6667V20.1335H9.33335C7.05335 20.1335 5.20002 18.2802 5.20002 16.0002ZM10.6667 17.3335H21.3334V14.6668H10.6667V17.3335ZM22.6667 9.3335H17.3334V11.8668H22.6667C24.9467 11.8668 26.8 13.7202 26.8 16.0002C26.8 18.2802 24.9467 20.1335 22.6667 20.1335H17.3334V22.6668H22.6667C26.3467 22.6668 29.3334 19.6802 29.3334 16.0002C29.3334 12.3202 26.3467 9.3335 22.6667 9.3335Z" fill="black"/>
</svg>
