<svg width="120" height="120" viewBox="0 0 120 120" fill="none" xmlns="http://www.w3.org/2000/svg">
<rect width="120" height="120" rx="60" fill="#FFBD22"/>
<path d="M35 90C35 90 30 90 30 85C30 80 35 65 60 65C85 65 90 80 90 85C90 90 85 90 85 90H35ZM60 60C63.9782 60 67.7936 58.4196 70.6066 55.6066C73.4197 52.7936 75 48.9782 75 45C75 41.0218 73.4197 37.2064 70.6066 34.3934C67.7936 31.5804 63.9782 30 60 30C56.0218 30 52.2064 31.5804 49.3934 34.3934C46.5804 37.2064 45 41.0218 45 45C45 48.9782 46.5804 52.7936 49.3934 55.6066C52.2064 58.4196 56.0218 60 60 60Z" fill="white"/>
</svg>
