<svg width="19" height="19" viewBox="0 0 19 19" fill="none" xmlns="http://www.w3.org/2000/svg">
<path fill-rule="evenodd" clip-rule="evenodd" d="M11.9475 13.5391C10.4246 14.661 8.53403 15.166 6.65453 14.953C4.77503 14.74 3.04542 13.8247 1.81222 12.3904C0.579026 10.9561 -0.0666836 9.10886 0.00445634 7.21867C0.0755962 5.32847 0.858331 3.53495 2.19585 2.19744C3.53337 0.859918 5.32688 0.0771832 7.21708 0.00604326C9.10728 -0.0650966 10.9546 0.580613 12.3888 1.81381C13.8231 3.04701 14.7384 4.77661 14.9514 6.65612C15.1645 8.53562 14.6594 10.4262 13.5375 11.9491L17.67 16.0801C17.7806 16.1831 17.8692 16.3073 17.9307 16.4453C17.9922 16.5833 18.0252 16.7323 18.0279 16.8833C18.0306 17.0344 18.0028 17.1844 17.9462 17.3245C17.8896 17.4646 17.8054 17.5918 17.6986 17.6987C17.5918 17.8055 17.4645 17.8897 17.3244 17.9463C17.1843 18.0029 17.0343 18.0307 16.8832 18.028C16.7322 18.0253 16.5832 17.9923 16.4452 17.9308C16.3072 17.8693 16.183 17.7806 16.08 17.6701L11.9475 13.5391ZM12.75 7.50011C12.75 8.8925 12.1969 10.2279 11.2123 11.2124C10.2278 12.197 8.89241 12.7501 7.50002 12.7501C6.10764 12.7501 4.77228 12.197 3.78771 11.2124C2.80315 10.2279 2.25002 8.8925 2.25002 7.50011C2.25002 6.10773 2.80315 4.77237 3.78771 3.7878C4.77228 2.80324 6.10764 2.25011 7.50002 2.25011C8.89241 2.25011 10.2278 2.80324 11.2123 3.7878C12.1969 4.77237 12.75 6.10773 12.75 7.50011Z" fill="#B9B9B9"/>
</svg>
