<svg width="198" height="198" viewBox="0 0 198 198" fill="none" xmlns="http://www.w3.org/2000/svg">
<path d="M177.3 95.8241C177.23 94.9771 177.089 94.0594 176.842 93.1065C175.077 86.5417 166.147 82.9064 162.794 77.1534C159.406 71.2946 160.712 61.7298 155.983 57.0004C151.218 52.2356 141.688 53.5768 135.83 50.1886C130.077 46.8356 126.441 37.9061 119.877 36.1414C113.488 34.412 105.9 40.3061 98.9823 40.3061C92.0646 40.3061 84.4763 34.412 78.1233 36.1061C71.5586 37.8708 67.9233 46.8003 62.1703 50.1533C56.3114 53.5415 46.7467 52.2356 41.9819 57.0004C37.2172 61.7651 38.5584 71.2946 35.1701 77.1534C31.8172 82.9064 22.8877 86.5417 21.123 93.1065C20.8759 94.0594 20.77 94.9418 20.6642 95.8241L20.6641 95.9653C20.6289 96.5653 20.6289 97.13 20.6641 97.73L20.6642 108.53C20.6596 112.049 21.3494 115.535 22.694 118.787C24.0386 122.039 26.0117 124.994 28.5001 127.483C30.9886 129.971 33.9435 131.944 37.1957 133.289C40.4479 134.633 43.9334 135.323 47.4526 135.319L150.583 135.319C154.102 135.323 157.587 134.633 160.839 133.289C164.092 131.944 167.047 129.971 169.535 127.483C172.023 124.994 173.997 122.039 175.341 118.787C176.686 115.535 177.376 112.049 177.371 108.53L177.3 95.8241Z" fill="#A6A6A6"/>
<path d="M100.712 70.7653C76.2174 70.7653 56.3114 90.6714 56.3114 115.166L56.3114 135.283L145.112 135.283L145.112 115.166C145.112 90.6008 125.241 70.73 100.712 70.7653Z" fill="#D6D6D6"/>
<path d="M125.806 69.177C128.241 70.4829 131.312 69.6006 132.618 67.1653L140.771 52.0946L138.83 51.5652C136.888 50.8946 135.088 49.871 133.43 48.6357L131.983 47.2593L123.83 62.3299C122.488 64.8005 123.371 67.8712 125.806 69.177ZM98.9823 61.624C96.2294 61.624 93.9706 59.3652 93.9706 56.6123L93.9353 39.4945L95.9117 39.9886C97.9235 40.3063 100.041 40.3063 102.053 39.9886L103.994 39.4592L103.994 56.6123C103.994 59.3652 101.735 61.624 98.9823 61.624ZM71.8763 69.177C69.441 70.4829 66.3704 69.6006 65.0645 67.1653L56.9468 52.1299L58.8527 51.6358C60.7939 50.9652 62.5939 49.9416 64.2527 48.7063L65.6998 47.3298L73.8528 62.4005C75.194 64.8005 74.3116 67.8711 71.8763 69.177ZM44.3467 92.4007C46.6056 94.0243 49.7114 93.5301 51.3703 91.3066C52.1622 90.2348 52.5022 88.8951 52.3175 87.5754C52.1327 86.2556 51.4378 85.0609 50.382 84.2477L36.5467 74.083L35.8055 75.9536C34.8525 77.8242 33.6172 79.483 32.1702 80.9301L30.5819 82.2359L44.3467 92.4007ZM153.265 92.4007C151.006 94.0243 147.9 93.5301 146.241 91.3066C144.618 89.0478 145.112 85.9419 147.265 84.283L161.1 74.1182L161.842 75.9889C162.795 77.8595 164.03 79.5183 165.477 80.9654L167.03 82.236L153.265 92.4007Z" fill="#888888"/>
</svg>
