<svg width="142" height="142" viewBox="0 0 142 142" fill="none" xmlns="http://www.w3.org/2000/svg">
<g clip-path="url(#clip0_917_559)">
<path d="M120.026 72.8383C119.982 72.308 119.894 71.7334 119.739 71.1368C118.635 67.0266 113.044 64.7499 110.945 61.1479C108.825 57.4795 109.643 51.4913 106.682 48.5299C103.7 45.5464 97.7332 46.3854 94.0654 44.2637C90.4638 42.164 88.1884 36.5732 84.0785 35.4678C80.0791 34.3846 75.3278 38.0742 70.9967 38.0737C66.6657 38.0732 61.9153 34.3824 57.9377 35.4426C53.8275 36.547 51.5508 42.1372 47.9487 44.236C44.2804 46.3569 38.2922 45.5386 35.3087 48.5214C32.3252 51.5041 33.1642 57.4704 31.0424 61.1383C28.9428 64.7399 23.3519 67.0152 22.2466 71.1251C22.0918 71.7217 22.0255 72.2741 21.9591 72.8266L21.9591 72.9149C21.937 73.2906 21.9369 73.6441 21.959 74.0198L21.9582 80.7815C21.9551 82.9848 22.3867 85.1671 23.2283 87.2033C24.0699 89.2395 25.3049 91.0897 26.8627 92.6478C28.4205 94.206 30.2704 95.4415 32.3064 96.2836C34.3424 97.1257 36.5246 97.5578 38.7279 97.5552L103.296 97.5629C105.499 97.5661 107.681 97.1345 109.717 96.2928C111.754 95.4512 113.604 94.2162 115.162 92.6584C116.72 91.1006 117.956 89.2507 118.798 87.2147C119.64 85.1787 120.072 82.9965 120.069 80.7933L120.026 72.8383Z" fill="#FFCE7C"/>
<path d="M72.0773 57.1436C56.7419 57.1418 44.2776 69.6031 44.2758 84.9384L44.2743 97.5338L99.8706 97.5404L99.8721 84.9451C99.8739 69.5655 87.4347 57.1234 72.0773 57.1436Z" fill="#FFDEA7"/>
<path d="M87.7883 56.1511C89.3129 56.9689 91.2354 56.4167 92.0532 54.8921L97.1587 45.4573L95.9434 45.1257C94.7281 44.7057 93.6013 44.0647 92.5628 43.2912L91.6569 42.4293L86.5513 51.8642C85.7115 53.4108 86.2637 55.3334 87.7883 56.1511ZM70.9951 51.4203C69.2715 51.4201 67.8574 50.0058 67.8576 48.2822L67.8368 37.5651L69.0742 37.8746C70.3337 38.0736 71.6596 38.0738 72.9191 37.8751L74.1345 37.5438L74.1332 48.2829C74.133 50.0065 72.7186 51.4206 70.9951 51.4203ZM54.0239 56.1471C52.4991 56.9645 50.5767 56.4118 49.7593 54.887L44.6781 45.4731L45.8714 45.1639C47.0868 44.7442 48.2138 44.1035 49.2525 43.3302L50.1586 42.4685L55.2619 51.9046C56.1014 53.4073 55.5487 55.3297 54.0239 56.1471ZM36.7865 70.6849C38.2005 71.7015 40.1451 71.3924 41.1839 70.0004C41.6797 69.3294 41.8927 68.4907 41.7772 67.6645C41.6616 66.8382 41.2266 66.0901 40.5657 65.5809L31.9044 59.2159L31.4402 60.387C30.8434 61.5581 30.0699 62.5966 29.1638 63.5024L28.1693 64.3199L36.7865 70.6849ZM104.978 70.6931C103.564 71.7094 101.619 71.3998 100.581 70.0075C99.5645 68.5932 99.8741 66.6487 101.222 65.6103L109.885 59.2474L110.349 60.4186C110.945 61.5898 111.719 62.6284 112.625 63.5345L113.597 64.3301L104.978 70.6931Z" fill="#F3AD61"/>
</g>
<defs>
<clipPath id="clip0_917_559">
<rect width="100" height="100" fill="white" transform="translate(71.0007) rotate(45.0069)"/>
</clipPath>
</defs>
</svg>
