<svg width="36" height="36" viewBox="0 0 36 36" fill="none" xmlns="http://www.w3.org/2000/svg">
<path d="M27 19.497H19.5V26.997C19.5 27.3948 19.342 27.7764 19.0607 28.0577C18.7794 28.339 18.3978 28.497 18 28.497C17.6022 28.497 17.2206 28.339 16.9393 28.0577C16.658 27.7764 16.5 27.3948 16.5 26.997V19.497H9C8.60218 19.497 8.22064 19.339 7.93934 19.0577C7.65804 18.7763 7.5 18.3948 7.5 17.997C7.5 17.5992 7.65804 17.2176 7.93934 16.9363C8.22064 16.655 8.60218 16.497 9 16.497H16.5V8.99699C16.5 8.59917 16.658 8.21764 16.9393 7.93633C17.2206 7.65503 17.6022 7.49699 18 7.49699C18.3978 7.49699 18.7794 7.65503 19.0607 7.93633C19.342 8.21764 19.5 8.59917 19.5 8.99699V16.497H27C27.3978 16.497 27.7794 16.655 28.0607 16.9363C28.342 17.2176 28.5 17.5992 28.5 17.997C28.5 18.3948 28.342 18.7763 28.0607 19.0577C27.7794 19.339 27.3978 19.497 27 19.497Z" fill="white"/>
</svg>
