<svg width="12" height="12" viewBox="0 0 12 12" fill="none" xmlns="http://www.w3.org/2000/svg">
<path d="M6.00005 1.25C6.19896 1.25 6.38972 1.32902 6.53038 1.46967C6.67103 1.61032 6.75005 1.80109 6.75005 2V4.701L9.08905 3.35C9.26122 3.25211 9.46511 3.2263 9.65625 3.27819C9.84738 3.33008 10.0102 3.45546 10.1093 3.62698C10.2083 3.79849 10.2354 4.00222 10.1848 4.19369C10.1342 4.38516 10.0099 4.54884 9.83905 4.649L7.50005 6L9.83905 7.3505C10.0099 7.45066 10.1342 7.61434 10.1848 7.80581C10.2354 7.99728 10.2083 8.201 10.1093 8.37252C10.0102 8.54404 9.84738 8.66942 9.65625 8.72131C9.46511 8.7732 9.26122 8.74739 9.08905 8.6495L6.75005 7.2995V10C6.75005 10.1989 6.67103 10.3897 6.53038 10.5303C6.38972 10.671 6.19896 10.75 6.00005 10.75C5.80113 10.75 5.61037 10.671 5.46972 10.5303C5.32906 10.3897 5.25005 10.1989 5.25005 10V7.299L2.91105 8.65C2.82572 8.70002 2.73134 8.73267 2.63334 8.74607C2.53534 8.75947 2.43566 8.75336 2.34004 8.72807C2.24441 8.70279 2.15473 8.65885 2.07616 8.59876C1.99759 8.53868 1.93168 8.46365 1.88222 8.378C1.83277 8.29234 1.80074 8.19774 1.78799 8.09966C1.77525 8.00157 1.78202 7.90194 1.80794 7.80648C1.83385 7.71103 1.8784 7.62164 1.939 7.54347C1.9996 7.4653 2.07506 7.39989 2.16105 7.351L4.50005 6L2.16105 4.6495C1.99019 4.54934 1.86589 4.38566 1.81527 4.19419C1.76465 4.00272 1.79181 3.79899 1.89084 3.62748C1.98987 3.45596 2.15272 3.33058 2.34385 3.27869C2.53498 3.2268 2.73888 3.25261 2.91105 3.3505L5.25005 4.7005V2C5.25005 1.80109 5.32906 1.61032 5.46972 1.46967C5.61037 1.32902 5.80113 1.25 6.00005 1.25Z" fill="#F9291C"/>
</svg>
