<svg width="18" height="18" viewBox="0 0 18 18" fill="none" xmlns="http://www.w3.org/2000/svg">
<path d="M5.43329 12.7133L6.90079 12.29L15.7366 3.34829C15.8063 3.27687 15.8451 3.1809 15.8447 3.08111C15.8442 2.98132 15.8045 2.88572 15.7341 2.81495L15.205 2.27995C15.1708 2.24482 15.1299 2.21684 15.0848 2.19767C15.0397 2.17849 14.9912 2.16849 14.9422 2.16826C14.8931 2.16803 14.8445 2.17756 14.7992 2.19631C14.7539 2.21506 14.7128 2.24264 14.6783 2.27745L5.86579 11.1958L5.43329 12.7133ZM16.2525 1.21995L16.7816 1.75579C17.5116 2.49495 17.5183 3.68745 16.795 4.41912L7.68996 13.6341L4.55329 14.5375C4.45847 14.5641 4.35932 14.5718 4.26151 14.5602C4.16371 14.5485 4.06915 14.5177 3.98326 14.4695C3.89736 14.4213 3.82181 14.3566 3.7609 14.2792C3.69999 14.2018 3.65493 14.1131 3.62829 14.0183C3.58742 13.8808 3.58685 13.7344 3.62663 13.5966L4.53913 10.3966L13.62 1.20579C13.7926 1.03192 13.9982 0.894171 14.2247 0.80058C14.4511 0.706989 14.694 0.659427 14.939 0.660668C15.184 0.661909 15.4264 0.711929 15.6519 0.807809C15.8774 0.903689 16.0816 1.04434 16.2525 1.21995ZM6.65329 2.18079C7.06663 2.18079 7.40163 2.51995 7.40163 2.93829C7.40228 3.03718 7.38344 3.13523 7.34618 3.22683C7.30892 3.31843 7.25397 3.4018 7.18447 3.47215C7.11497 3.5425 7.03228 3.59846 6.94114 3.63684C6.85 3.67521 6.75218 3.69524 6.65329 3.69579H3.65996C2.83329 3.69579 2.16329 4.37412 2.16329 5.20995V14.2983C2.16329 15.135 2.83329 15.8133 3.65996 15.8133H12.64C13.4666 15.8133 14.1375 15.135 14.1375 14.2983V11.2691C14.1375 10.8508 14.4725 10.5116 14.8858 10.5116C15.2991 10.5116 15.6341 10.8508 15.6341 11.27V14.2983C15.6341 15.9716 14.2933 17.3283 12.64 17.3283H3.65996C2.00663 17.3283 0.666626 15.9716 0.666626 14.2983V5.20995C0.666626 3.53745 2.00663 2.18079 3.65996 2.18079H6.65329Z" fill="white"/>
</svg>
