<svg width="16" height="18" viewBox="0 0 16 18" fill="none" xmlns="http://www.w3.org/2000/svg">
<path d="M1.33337 4.83333H14.6667M6.33337 8.16667V13.1667M9.66671 8.16667V13.1667M2.16671 4.83333L3.00004 14.8333C3.00004 15.2754 3.17564 15.6993 3.4882 16.0118C3.80076 16.3244 4.22468 16.5 4.66671 16.5H11.3334C11.7754 16.5 12.1993 16.3244 12.5119 16.0118C12.8244 15.6993 13 15.2754 13 14.8333L13.8334 4.83333M5.50004 4.83333V2.33333C5.50004 2.11232 5.58784 1.90036 5.74412 1.74408C5.9004 1.5878 6.11236 1.5 6.33337 1.5H9.66671C9.88772 1.5 10.0997 1.5878 10.256 1.74408C10.4122 1.90036 10.5 2.11232 10.5 2.33333V4.83333" stroke="white" stroke-width="2" stroke-linecap="round" stroke-linejoin="round"/>
</svg>
