<svg width="16" height="18" viewBox="0 0 16 18" fill="none" xmlns="http://www.w3.org/2000/svg">
<path d="M3.78333 10.6941C3.59949 11.1839 3.43108 11.6795 3.27833 12.1799C4.07833 11.5991 5.02917 11.2299 6.12667 11.0932C8.22083 10.8316 10.0817 9.44906 11.0233 7.71156L9.81 6.49906L10.9875 5.3199L11.8208 4.4849C12.1792 4.1274 12.5833 3.4649 13.0108 2.5124C8.35 3.2349 5.49667 6.08823 3.78333 10.6941ZM12.1667 6.4974L13 7.33073C12.1667 9.83073 9.66667 12.3307 6.33333 12.7474C4.10944 13.0252 2.72 14.553 2.165 17.3307H0.5C1.33333 12.3307 3 0.664062 15.5 0.664062C14.6667 3.16184 13.8342 4.82767 13.0025 5.66156L12.1667 6.4974Z" fill="white"/>
</svg>
